<?xml version="1.0" standalone="no"?>
<!DOCTYPE svg PUBLIC "-//W3C//DTD SVG 20010904//EN"
 "http://www.w3.org/TR/2001/REC-SVG-20010904/DTD/svg10.dtd">
<svg version="1.0" xmlns="http://www.w3.org/2000/svg"
 width="768.000000pt" height="768.000000pt" viewBox="0 0 768.000000 768.000000"
 preserveAspectRatio="xMidYMid meet">

<g transform="translate(0.000000,768.000000) scale(0.100000,-0.100000)"
fill="#000000" stroke="none">
<path d="M0 3840 l0 -3840 3840 0 3840 0 0 3840 0 3840 -3840 0 -3840 0 0
-3840z m4470 2149 l625 -619 -229 -225 c-125 -124 -231 -225 -235 -225 -3 0
-183 177 -398 392 l-393 393 -395 -395 -395 -395 -62 62 c-35 34 -139 136
-233 227 l-169 166 624 619 c344 341 627 620 630 620 3 0 286 -279 630 -620z
m-395 -1169 l230 -230 -233 -233 -232 -232 -232 232 -233 233 230 230 c126
126 232 230 235 230 3 0 109 -104 235 -230z m-1580 -5 l229 -225 -229 -225
c-127 -123 -232 -225 -235 -225 -3 0 -106 101 -230 225 l-225 225 225 225
c124 124 227 225 230 225 3 0 108 -102 235 -225z m3158 -2 l223 -223 -223
-222 c-123 -123 -228 -223 -233 -223 -11 0 -450 434 -450 445 0 12 443 450
452 447 4 -1 108 -102 231 -224z m-2206 -945 l393 -393 393 393 c215 215 395
392 398 392 4 0 110 -101 235 -225 l229 -225 -625 -619 c-344 -341 -628 -619
-631 -618 -4 1 -287 280 -630 621 l-624 618 230 224 c127 123 232 224 235 224
3 0 182 -177 397 -392z m2374 -1908 c64 -12 141 -48 188 -88 l35 -29 -59 -66
-58 -67 -34 26 c-82 63 -199 83 -281 48 -162 -67 -205 -311 -77 -439 94 -95
238 -98 354 -9 l45 34 58 -57 58 -57 -23 -24 c-121 -131 -351 -166 -527 -80
-206 100 -293 358 -192 571 89 189 286 280 513 237z m-4538 -20 c50 -18 116
-76 133 -117 18 -41 18 -124 0 -166 -7 -18 -30 -49 -52 -69 -21 -21 -34 -38
-28 -38 6 0 31 -14 57 -31 117 -77 117 -261 1 -341 -70 -49 -133 -58 -396 -58
l-238 0 0 421 0 421 243 -5 c165 -3 254 -8 280 -17z m625 -402 l2 -418 -95 0
-95 0 0 420 0 421 93 -3 92 -3 3 -417z m657 161 l200 -260 3 261 2 260 90 0
90 0 0 -420 0 -420 -79 0 -79 0 -153 198 c-84 108 -177 228 -206 266 l-53 68
0 -266 0 -266 -95 0 -95 0 0 413 c0 228 3 417 7 420 3 4 43 7 87 6 l81 0 200
-260z m1172 164 c23 -54 104 -243 181 -420 l140 -323 -97 0 -97 0 -39 95 -38
95 -182 0 -181 0 -39 -95 -38 -95 -95 0 c-71 0 -93 3 -89 13 3 6 80 185 172
397 92 212 171 395 176 408 8 20 15 22 97 22 l88 0 41 -97z m838 -85 c77 -100
168 -218 203 -262 l62 -79 0 261 0 262 90 0 90 0 0 -420 0 -420 -78 0 -79 0
-191 248 c-105 136 -198 256 -206 267 -14 18 -15 -8 -16 -247 l0 -268 -90 0
-90 0 0 420 0 420 83 0 82 0 140 -182z m2335 97 l0 -85 -225 0 -225 0 0 -85 0
-85 200 0 200 0 0 -80 0 -80 -200 0 -200 0 0 -90 0 -90 230 0 230 0 0 -80 0
-80 -325 0 -325 0 0 413 c0 228 3 417 7 420 3 4 147 7 320 7 l313 0 0 -85z"/>
<path d="M940 1709 l0 -91 129 4 c121 3 131 5 155 27 30 28 34 74 11 108 -22
31 -74 43 -192 43 l-103 0 0 -91z"/>
<path d="M948 1464 c-5 -4 -8 -47 -8 -96 l0 -88 143 0 c124 0 146 3 174 20 56
33 56 102 1 143 -24 18 -47 21 -165 25 -76 2 -141 1 -145 -4z"/>
<path d="M3548 1608 l-55 -133 59 -3 c32 -2 83 -2 113 0 l54 3 -55 129 c-30
72 -56 131 -58 133 -2 2 -28 -56 -58 -129z"/>
</g>
</svg>
